<?xml version="1.0" encoding="utf-8"?>
<!-- Generator: Adobe Illustrator 16.0.3, SVG Export Plug-In . SVG Version: 6.00 Build 0)  -->
<!DOCTYPE svg PUBLIC "-//W3C//DTD SVG 1.1//EN" "http://www.w3.org/Graphics/SVG/1.1/DTD/svg11.dtd">
<svg version="1.1" id="Capa_1" xmlns="http://www.w3.org/2000/svg" xmlns:xlink="http://www.w3.org/1999/xlink" x="0px" y="0px"
	 width="1000px" height="1000px" viewBox="0 0 1000 1000" enable-background="new 0 0 1000 1000" xml:space="preserve">
<g id="XMLID_8_">
	<g>
		<path fill="#B2A18A" d="M498.161,941.472c-83.189-134.273-170.74-263.983-255.838-397.383h518.805
			c-44.436,73.305-88.767,146.663-133.245,219.95c-39.235,64.676-78.617,129.264-118.23,193.762c-0.146,0-0.294,0-0.44-0.018
			C505.458,952.363,501.663,946.944,498.161,941.472z"/>
	</g>
	<g>
		<path fill="none" stroke="#000000" stroke-miterlimit="10" d="M242.323,544.089c85.098,133.399,172.648,263.109,255.838,397.383
			c3.502,5.473,7.297,10.892,11.051,16.312"/>
		<path fill="none" stroke="#000000" stroke-miterlimit="10" d="M761.128,544.089c-44.436,73.305-88.767,146.663-133.245,219.95
			c-39.235,64.676-78.617,129.264-118.23,193.762"/>
		<line fill="none" stroke="#000000" stroke-miterlimit="10" x1="761.128" y1="544.089" x2="242.323" y2="544.089"/>
	</g>
</g>
<g id="XMLID_7_">
	<g>
		<path fill="#84C3D6" d="M855.229,329.92c1.677,11,2.558,22.212,2.558,33.568c0,15.991-1.74,31.679-5.012,46.938
			c-8.934,14.814-17.95,28.916-21.726,45.637c-1.404,6.275-1.95,13.353-3.396,20.145c-4.613,8.236-9.688,16.258-15.267,24.049
			c-11.219,8.539-24.137,14.868-31.016,27.15c-1.824,3.245-1.278,6.347,0.482,8.771c-0.607,0.624-1.216,1.229-1.824,1.854
			c-0.524,0.179-1.049,0.356-1.572,0.553c-14.029,5.045-24.641,11.927-35.859,20.52c-22.271,17.096-46.114,29.593-72.285,41.769
			c-11.114,5.17-21.641,11.267-30.554,18.968c-1.027,0.892-1.992,1.818-2.936,2.781c-18.979,6.15-38.753,11.053-59.199,14.582
			c-8.996-1.568-18.034-2.941-27.156-3.922c-30.68-3.315-61.506-1.551-92.312-1.907c-27.325-0.339-52.195-2.14-73.229-18.201
			c-8.871-6.774-15.707-14.903-26.087-20.163c-10.045-5.099-22.103-6.239-33.448-7.487c-27.01-2.995-47.561-11.623-67.692-27.114
			c-18.433-14.173-34.979-29.86-56.2-41.074c-6.501-7.755-12.52-15.795-18.035-24.048c5.662-1.783,9.583-6.935,5.075-12.229
			c-10.82-12.657-21.746-25.51-31.393-38.952c-9.269-24.958-14.281-51.324-14.281-78.617c0-10.839,0.818-21.535,2.349-32.053
			c0.923-1.622,1.804-3.244,2.685-4.867c12.31-23.157,18.915-47.688,23.319-72.645c9.667-17.827,21.642-34.709,35.586-50.415
			c2.81-0.517,5.411-1.07,7.612-1.711c7.046-2.104,8.493-8.343,6.187-12.818c10.044-9.894,20.949-19.235,32.567-27.97
			c0.839-0.446,1.552-0.981,2.16-1.587c49.742-36.742,112.904-62.43,183.092-72.057c17.783-1.266,35.608-2.032,53.496-1.515
			c33.657,0.963,66.895,6.275,100.448,6.721c69.537,14.494,130.75,45.031,176.821,86.212c-0.167,2.87,1.195,5.829,4.761,7.844
			c30.092,17.132,35.691,50.736,44.121,78.314C825.324,288.651,842.813,308.368,855.229,329.92z"/>
	</g>
	<g>
		<path fill="none" stroke="#3E3E4D" stroke-miterlimit="10" d="M253.17,161.009c-11.618,8.735-22.522,18.076-32.567,27.97
			c2.307,4.475,0.86,10.714-6.187,12.818c-2.202,0.642-4.802,1.194-7.612,1.711c-13.945,15.706-25.919,32.588-35.586,50.415
			c-4.404,24.958-11.009,49.488-23.319,72.645c-0.881,1.623-1.762,3.245-2.685,4.867c-1.531,10.518-2.349,21.214-2.349,32.053
			c0,27.293,5.012,53.659,14.281,78.617c9.646,13.442,20.572,26.295,31.393,38.952c4.509,5.295,0.587,10.447-5.075,12.229
			c5.515,8.253,11.534,16.293,18.035,24.048c21.222,11.214,37.768,26.901,56.2,41.074c20.132,15.491,40.683,24.119,67.692,27.114
			c11.345,1.248,23.403,2.389,33.448,7.487c10.38,5.26,17.216,13.389,26.087,20.163c21.033,16.062,45.904,17.862,73.229,18.201
			c30.805,0.356,61.632-1.408,92.312,1.907c9.122,0.98,18.16,2.354,27.156,3.922c20.446-3.529,40.221-8.432,59.199-14.582
			c0.943-0.963,1.908-1.89,2.936-2.781c8.913-7.701,19.439-13.798,30.554-18.968c26.171-12.176,50.015-24.673,72.285-41.769
			c11.219-8.593,21.83-15.475,35.859-20.52c0.523-0.196,1.048-0.374,1.572-0.553c0.608-0.624,1.217-1.229,1.824-1.854
			c-1.761-2.425-2.307-5.526-0.482-8.771c6.879-12.282,19.797-18.611,31.016-27.15c5.578-7.791,10.653-15.813,15.267-24.049
			c1.446-6.792,1.992-13.869,3.396-20.145c3.775-16.722,12.792-30.823,21.726-45.637c3.271-15.26,5.012-30.948,5.012-46.938
			c0-11.356-0.881-22.569-2.558-33.568c-12.415-21.553-29.904-41.27-37.16-64.979c-8.43-27.579-14.029-61.183-44.121-78.314
			c-3.565-2.015-4.928-4.974-4.761-7.844c-46.071-41.181-107.284-71.718-176.821-86.212c-33.553-0.445-66.791-5.758-100.448-6.721
			c-17.888-0.517-35.712,0.25-53.496,1.515c-70.188,9.627-133.35,35.315-183.092,72.057"/>
	</g>
</g>
<g id="XMLID_1_">
	<g>
		<path fill="#FFFFFF" d="M395.825,230.635c36.488,0,66.056,34.121,66.056,76.211c0,42.089-29.568,76.21-66.056,76.21
			c22.585,0,40.892-20.555,40.892-45.905s-18.307-45.905-40.892-45.905c-22.585,0-40.892,20.555-40.892,45.905
			s18.307,45.905,40.892,45.905c-36.489,0-66.057-34.121-66.057-76.21C329.769,264.756,359.336,230.635,395.825,230.635z"/>
		<ellipse fill="#38231E" cx="395.825" cy="337.152" rx="40.892" ry="45.905"/>
	</g>
	<g>
		<path fill="none" stroke="#000000" stroke-miterlimit="10" d="M461.881,306.846c0,42.089-29.568,76.21-66.056,76.21
			c-36.489,0-66.057-34.121-66.057-76.21c0-42.09,29.568-76.211,66.057-76.211C432.313,230.635,461.881,264.756,461.881,306.846z"/>
		<ellipse fill="none" stroke="#000000" stroke-miterlimit="10" cx="395.825" cy="337.152" rx="40.892" ry="45.905"/>
	</g>
</g>
<g id="XMLID_6_">
	<g>
		<path fill="#FFFFFF" d="M597.14,230.635c36.488,0,66.057,34.121,66.057,76.211c0,42.089-29.568,76.21-66.057,76.21
			c22.585,0,40.893-20.555,40.893-45.905s-18.308-45.905-40.893-45.905s-40.892,20.555-40.892,45.905s18.307,45.905,40.892,45.905
			c-36.488,0-66.056-34.121-66.056-76.21C531.084,264.756,560.651,230.635,597.14,230.635z"/>
		<ellipse fill="#38231E" cx="597.14" cy="337.152" rx="40.893" ry="45.905"/>
	</g>
	<g>
		<path fill="none" stroke="#000000" stroke-miterlimit="10" d="M663.196,306.846c0,42.089-29.568,76.21-66.057,76.21
			s-66.056-34.121-66.056-76.21c0-42.09,29.567-76.211,66.056-76.211S663.196,264.756,663.196,306.846z"/>
		<ellipse fill="none" stroke="#000000" stroke-miterlimit="10" cx="597.14" cy="337.152" rx="40.892" ry="45.905"/>
	</g>
</g>
<g>
	<g>
		<path fill="#6CA3AF" d="M351.665,109.741c-15.139-17.015-37.498-28.42-60.49-37.563c-10.914-4.341-21.975-8.396-32.088-13.896
			c-6.62-3.601-17.524-9.069-18.79-16.083c20.203,16.254,15.552,42.371,8.05,62.269c-8.148,21.615-25.918,45.342-8.05,67.235"/>
		<g>
			<path fill="#56848C" d="M352.107,109.299c-14.696-16.213-34.312-26.613-54.222-35.048c-11.186-4.739-22.671-8.722-33.625-14.005
				c-7.71-3.718-21.077-9.092-23.36-18.214c-0.348,0.203-0.696,0.405-1.044,0.608c19.447,16.231,15.47,42.007,7.332,63.105
				c-8.344,21.632-24.291,44.627-7.332,66.399c0.495,0.635,1.373-0.256,0.884-0.884c-18.462-23.703,3.353-50.444,10.75-74.031
				c6.105-19.469,6.06-41.443-10.75-55.473c-0.468-0.39-1.205-0.032-1.044,0.608c1.916,7.655,10.64,11.875,16.977,15.321
				c10.492,5.706,21.521,10.041,32.613,14.412c22.583,8.899,45.382,19.82,61.938,38.085
				C351.766,110.782,352.647,109.895,352.107,109.299L352.107,109.299z"/>
		</g>
	</g>
	<g>
		<path fill="#6CA3AF" d="M241.038,171.703c-8.934-10.947,14.511-31.02,18.585-41.828c3.751-9.949,19.702-30.69,9.601-38.817
			c0.633,3.507,11.24,3.334,14.55,5.135c5.056,2.75,17.65,0.795,23.107,2.966c11.496,4.571,37.215,2.076,44.784,10.583"/>
		<path fill="none" stroke="#56848C" stroke-width="0.5" stroke-miterlimit="10" d="M241.038,171.703
			c-8.934-10.947,14.511-31.02,18.585-41.828c3.751-9.949,19.702-30.69,9.601-38.817c0.633,3.507,11.24,3.334,14.55,5.135
			c5.056,2.75,17.65,0.795,23.107,2.966c11.496,4.571,37.215,2.076,44.784,10.583"/>
		<g>
			<path fill="#56848C" d="M241.578,171.387c-5.38-7.261,1.892-16.823,6.139-22.801c4.254-5.989,9.709-11.667,12.509-18.545
				c3.934-9.665,20.438-29.613,9.44-39.425c-0.43-0.384-1.274-0.022-1.044,0.608c1.784,4.904,10.882,3.71,14.837,5.508
				c6.945,3.158,15.117,0.924,22.386,2.733c7.266,1.808,14.171,3.008,21.662,3.781c7.556,0.78,18.042,1.094,23.717,6.937
				c0.563,0.579,1.445-0.306,0.884-0.884c-4.278-4.405-10.943-5.473-16.745-6.356c-7.821-1.191-15.77-1.416-23.534-2.998
				c-2.661-0.542-5.145-1.782-7.835-2.14c-4.232-0.563-8.513-0.471-12.77-0.701c-3.868-0.208-6.938-1.723-10.607-2.532
				c-2.66-0.586-9.682-0.636-10.79-3.681c-0.348,0.203-0.696,0.405-1.044,0.608c7.128,6.36,0.501,18.014-2.917,24.651
				c-3.335,6.477-6.232,13.604-10.291,19.642c-4.553,6.773-10.006,12.883-14,20.034c-2.785,4.985-4.79,11.179-1.076,16.191
				C240.973,172.658,242.058,172.036,241.578,171.387L241.578,171.387z"/>
		</g>
	</g>
	<line fill="#6CA3AF" stroke="#56848C" stroke-miterlimit="10" x1="241.779" y1="171.703" x2="351.665" y2="109.741"/>
</g>
<g>
	<g>
		<path d="M270.291,105.179c-2.198,3.46-2.784,8.232-2.614,12.255c0.136,3.212,5.136,3.225,5,0
			c-0.134-3.184,0.185-6.983,1.931-9.731C276.343,104.973,272.014,102.467,270.291,105.179L270.291,105.179z"/>
	</g>
</g>
<g>
	<g>
		<path fill="#6BA2AF" d="M267.243,90.169c3.432,9.965,6.761,24.52-0.58,33.668c1.422,0.589,2.845,1.178,4.268,1.768
			c-0.239-8.698,2.504-17.962,3.93-26.522c-1.637-0.222-3.274-0.443-4.911-0.665c-0.111,4.278-1.915,8.108-3.23,12.111
			c-1.337,4.07-2.501,8.171-4.02,12.182c1.523-0.199,3.046-0.398,4.569-0.597c-1.246-2.863-0.731-6.519-0.272-9.513
			c-1.637-0.222-3.274-0.443-4.911-0.665c1.054,8.597-4.055,15.521-7.881,22.761c-2.178,4.121-3.871,8.479-6.087,12.591
			c-1.827,3.388-5.165,5.318-7.185,8.548c-1.715,2.742,2.612,5.25,4.317,2.523c2.009-3.213,5.257-5.171,7.185-8.548
			c2.573-4.506,4.392-9.383,6.813-13.964c4.037-7.64,8.947-14.868,7.838-23.912c-0.311-2.532-4.445-3.702-4.911-0.665
			c-0.695,4.536-1.093,9.07,0.776,13.366c0.959,2.206,3.902,1.165,4.569-0.597c1.707-4.509,3.017-9.13,4.521-13.706
			c1.312-3.993,2.797-7.659,2.908-11.917c0.072-2.771-4.441-3.481-4.911-0.665c-1.506,9.043-4.361,18.65-4.108,27.851
			c0.054,1.98,2.818,3.574,4.268,1.768c8.629-10.752,6.002-26.524,1.866-38.532C271.021,85.811,266.189,87.112,267.243,90.169
			L267.243,90.169z"/>
	</g>
</g>
<g>
	<g>
		<path fill="#6BA2AF" d="M296.216,101.959c3.224,0,3.224-5,0-5S292.992,101.959,296.216,101.959L296.216,101.959z"/>
	</g>
</g>
<g>
	<g>
		<path fill="#6BA2AF" d="M242.566,164.799c3.224,0,3.224-5,0-5S239.342,164.799,242.566,164.799L242.566,164.799z"/>
	</g>
</g>
<g>
	<g>
		<path fill="#6BA2AF" d="M243.44,166.879c3.224,0,3.224-5,0-5S240.216,166.879,243.44,166.879L243.44,166.879z"/>
	</g>
</g>
<g>
	<g>
		<path fill="#6BA2AF" d="M242.566,165.69c3.224,0,3.224-5,0-5S239.342,165.69,242.566,165.69L242.566,165.69z"/>
	</g>
</g>
<g>
	<g>
		<path fill="#6BA2AF" d="M274.177,95.729c2.249,2.099,5.403,2.372,8.327,2.76c4.939,0.656,9.903,1.001,14.838,1.746
			c5.585,0.842,10.71,2.837,16.065,4.503c4.852,1.509,10.082,0.723,14.823,2.628c2.994,1.203,4.282-3.635,1.329-4.821
			c-4.257-1.711-8.86-1.389-13.308-2.237c-4.754-0.907-9.247-3.146-13.986-4.231c-4.643-1.063-9.45-1.441-14.166-2.039
			c-2.864-0.363-8.154,0.242-10.388-1.843C275.358,89.997,271.815,93.525,274.177,95.729L274.177,95.729z"/>
	</g>
</g>
<g>
	<g>
		<path fill="#6BA2AF" d="M330.852,107.515c3.283,1.25,6.469,3.39,10.101,3.356c3.223-0.03,3.226-5.03,0-5
			c-3,0.028-6.036-2.136-8.772-3.178C329.162,101.544,327.869,106.379,330.852,107.515L330.852,107.515z"/>
	</g>
</g>
<g>
	<g>
		<path fill="#6BA2AF" d="M342.196,105.416c-0.465-0.396-0.932-0.792-1.398-1.188c-1.037-0.882-2.514-1.021-3.535,0
			c-0.905,0.905-1.04,2.652,0,3.535c0.466,0.396,0.932,0.792,1.398,1.188c1.037,0.882,2.514,1.021,3.535,0
			C343.101,108.046,343.235,106.3,342.196,105.416L342.196,105.416z"/>
	</g>
</g>
<g>
	<g>
		<path fill="#6BA2AF" d="M339.086,104.018c1.752,0.976,3.423,2.084,5.275,2.87c0.474,0.201,1.083-0.125,0.918-0.706
			c-0.098-0.345-0.141-0.443-0.358-0.735c-0.47-0.633-1.473-0.094-1.079,0.631c0.266,0.49,0.625,0.807,1.057,1.156
			c0.662,0.536,1.028,1.45,1.564,2.118c0.504,0.629,1.382-0.261,0.884-0.884c-0.408-0.509-0.669-1.115-1.081-1.615
			c-0.417-0.507-1.026-0.819-1.345-1.406c-0.36,0.21-0.719,0.42-1.079,0.631c0.077,0.146,0.155,0.291,0.232,0.436
			c0.306-0.235,0.612-0.47,0.918-0.706c-1.852-0.786-3.523-1.894-5.275-2.87C339.012,102.546,338.382,103.626,339.086,104.018
			L339.086,104.018z"/>
	</g>
</g>
<g>
	<g>
		<path fill="#6BA2AF" d="M333.992,100.944c0.156,2.967,2.53,5.014,3.756,7.557c0.35,0.726,1.427,0.092,1.079-0.631
			c-1.099-2.28-3.446-4.282-3.585-6.926C335.2,100.143,333.95,100.139,333.992,100.944L333.992,100.944z"/>
	</g>
</g>
<g>
	<g>
		<path fill="#6BA2AF" d="M336.923,101.073c-0.805,0.603-1.083,1.452-1.096,2.434c-0.01,0.807,1.24,0.806,1.25,0
			c0.006-0.479,0.061-1.043,0.477-1.354C338.191,101.675,337.569,100.589,336.923,101.073L336.923,101.073z"/>
	</g>
</g>
<g>
	<g>
		<path fill="#6CA3AF" d="M652.186,110.187c15.138-17.015,37.496-28.421,60.488-37.563c10.913-4.34,21.975-8.395,32.087-13.896
			c6.62-3.602,17.527-9.07,18.791-16.084c-20.204,16.254-15.551,42.371-8.05,62.269c8.148,21.614,25.919,45.342,8.05,67.235"/>
		<g>
			<path fill="#55838C" d="M652.628,110.629c16.574-18.287,39.352-29.138,61.937-38.086c11.093-4.395,22.097-8.731,32.612-14.412
				c6.339-3.424,15.067-7.68,16.978-15.321c0.16-0.64-0.577-0.999-1.045-0.608c-16.546,13.809-16.673,34.92-11.133,54.198
				c6.944,24.163,29.991,51.096,11.133,75.306c-0.488,0.628,0.39,1.519,0.885,0.884c16.42-21.08,1.966-43.979-6.75-64.949
				c-8.815-21.209-12.968-48.1,6.75-64.555c-0.349-0.203-0.697-0.405-1.045-0.608c-2.304,9.212-15.652,14.376-23.36,18.215
				c-10.878,5.417-22.451,9.271-33.625,14.004c-19.91,8.434-39.524,18.835-54.221,35.048
				C651.204,110.341,652.085,111.228,652.628,110.629L652.628,110.629z"/>
		</g>
	</g>
	<g>
		<path fill="#6CA3AF" d="M762.811,172.148c8.936-10.947-14.51-31.02-18.584-41.827c-3.75-9.949-19.702-30.69-9.6-38.817
			c-0.633,3.507-11.24,3.334-14.551,5.135c-5.057,2.75-17.65,0.795-23.107,2.965c-11.496,4.571-37.215,2.076-44.783,10.583"/>
		<path fill="none" stroke="#55838C" stroke-width="0.5" stroke-miterlimit="10" d="M762.811,172.148
			c8.936-10.947-14.51-31.02-18.584-41.827c-3.75-9.949-19.702-30.69-9.6-38.817c-0.633,3.507-11.24,3.334-14.551,5.135
			c-5.057,2.75-17.65,0.795-23.107,2.965c-11.496,4.571-37.215,2.076-44.783,10.583"/>
		<g>
			<path fill="#55838C" d="M763.351,172.463c3.532-4.766,1.84-10.332-0.564-15.221c-3.752-7.629-9.699-14.054-14.511-21.003
				c-3.917-5.657-6.493-12.465-9.719-18.55c-3.591-6.772-10.87-19.159-3.487-25.744c-0.349-0.203-0.697-0.405-1.045-0.608
				c-1.019,2.798-7.26,3.033-9.739,3.478c-3.601,0.647-6.722,2.263-10.398,2.642c-3.886,0.4-7.82,0.261-11.717,0.53
				c-3.212,0.222-6.024,1.379-9.108,2.167c-7.581,1.937-15.595,1.975-23.318,3.058c-6.164,0.865-13.44,1.838-18,6.533
				c-0.562,0.578,0.322,1.463,0.885,0.884c5.684-5.853,16.153-6.138,23.715-6.937c7.366-0.778,14.615-1.387,21.662-3.781
				c7.159-2.433,15.37,0.532,22.387-2.733c3.956-1.841,13.045-0.582,14.838-5.509c0.229-0.63-0.614-0.992-1.045-0.608
				c-11.049,9.855,5.587,29.702,9.439,39.425c2.718,6.859,8.236,12.633,12.51,18.544c4.288,5.933,11.491,15.577,6.137,22.801
				C761.79,172.481,762.876,173.104,763.351,172.463L763.351,172.463z"/>
		</g>
	</g>
	<line fill="#6CA3AF" stroke="#55838C" stroke-miterlimit="10" x1="762.07" y1="172.148" x2="652.186" y2="110.187"/>
</g>
<g>
	<g>
		<path d="M729.242,108.149c1.745,2.749,2.063,6.548,1.931,9.73c-0.135,3.225,4.866,3.212,5,0c0.168-4.022-0.416-8.793-2.612-12.254
			C731.838,102.912,727.509,105.418,729.242,108.149L729.242,108.149z"/>
	</g>
</g>
<g>
	<g>
		<path fill="#6BA2AF" d="M731.783,89.287c-4.136,12.008-6.764,27.781,1.869,38.532c1.45,1.806,4.214,0.213,4.268-1.768
			c0.25-9.202-2.606-18.806-4.107-27.851c-0.468-2.816-4.983-2.107-4.911,0.665c0.11,4.219,1.499,7.98,2.907,11.916
			c1.621,4.533,2.814,9.197,4.521,13.707c0.667,1.762,3.61,2.803,4.569,0.597c1.868-4.296,1.472-8.83,0.778-13.366
			c-0.465-3.038-4.601-1.868-4.911,0.665c-1.031,8.402,3.131,15.473,7.087,22.544c2.493,4.457,4.384,9.208,6.711,13.752
			c2.117,4.132,5.674,6.349,8.036,10.127c1.705,2.727,6.032,0.219,4.318-2.523c-1.706-2.728-4.446-4.387-6.291-6.982
			c-2.69-3.782-4.408-8.561-6.291-12.776c-3.588-8.031-9.72-14.772-8.57-24.142c-1.637,0.222-3.273,0.443-4.911,0.665
			c0.458,2.994,0.972,6.651-0.272,9.514c1.522,0.199,3.046,0.398,4.569,0.597c-1.517-4.006-2.774-8.087-4.021-12.183
			c-1.236-4.057-3.116-7.792-3.229-12.11c-1.637,0.222-3.273,0.443-4.911,0.665c1.422,8.562,4.166,17.823,3.93,26.521
			c1.423-0.589,2.845-1.179,4.268-1.768c-7.345-9.147-4.015-23.702-0.582-33.667C737.658,87.559,732.827,86.257,731.783,89.287
			L731.783,89.287z"/>
	</g>
</g>
<g>
	<g>
		<path fill="#6BA2AF" d="M726.137,92.64c-2.189,2.043-7.562,1.558-10.388,1.843c-4.738,0.478-9.495,1.116-14.166,2.038
			c-4.804,0.948-9.263,3.014-13.985,4.232c-4.427,1.142-8.992,0.502-13.31,2.237c-2.952,1.187-1.664,6.024,1.33,4.821
			c4.682-1.881,9.952-1.371,14.824-2.628c5.44-1.403,10.471-3.545,16.064-4.503c4.912-0.842,9.89-1.197,14.838-1.746
			c2.908-0.322,6.106-0.687,8.327-2.76C732.033,93.971,728.49,90.443,726.137,92.64L726.137,92.64z"/>
	</g>
</g>
<g>
	<g>
		<path fill="#6BA2AF" d="M758.695,161.486c-0.451,1.074-0.313,2.318,0,3.409c0.377,1.309,1.751,2.11,3.076,1.746
			c1.302-0.358,2.122-1.766,1.746-3.075c-0.055-0.19-0.195-1.034-0.103-0.238c-0.02-0.169,0.038-0.701-0.063,0
			c0.026-0.179,0.096-0.347,0.166-0.512c0.529-1.259-0.561-2.749-1.746-3.075c-0.646-0.178-1.35-0.086-1.927,0.252
			C759.228,160.354,758.962,160.854,758.695,161.486L758.695,161.486z"/>
	</g>
</g>
<g>
	<g>
		<path fill="#6BA2AF" d="M663.828,110.228c0.4-0.616,2.62-1.249,3.564-1.565c1.615-0.542,3.236-1.017,4.802-1.696
			c2.951-1.281,0.402-5.587-2.523-4.317c-3.303,1.433-7.995,1.721-10.159,5.056C657.75,110.417,662.081,112.921,663.828,110.228
			L663.828,110.228z"/>
	</g>
</g>
<g>
	<g>
		<path fill="#56848C" d="M244.916,140.206c-1.144,5.754-0.555,11.491-0.498,17.306c0.032,3.223,5.032,3.226,5,0
			c-0.052-5.327-0.729-10.706,0.319-15.977C250.363,138.387,245.544,137.045,244.916,140.206L244.916,140.206z"/>
	</g>
</g>
<g>
	<g>
		<path fill="#56848C" d="M293.364,114.731c3.224,0,3.224-5,0-5S290.14,114.731,293.364,114.731L293.364,114.731z"/>
	</g>
</g>
<g>
	<g>
		<path fill="#56848C" d="M293.364,114.731c3.224,0,3.224-5,0-5S290.14,114.731,293.364,114.731L293.364,114.731z"/>
	</g>
</g>
<g>
	<g>
		<path fill="#6BA2AF" d="M296.991,106.589c-5.879,3.582-11.372,7.101-13.779,13.879c1.637,0.222,3.274,0.443,4.911,0.665
			c0.073-2.923,1.573-5.625,4.447-6.599c0.781-0.264,1.749-0.253,2.027-0.106c-0.027-0.014-0.01,0.2-0.058-0.2
			c0.074,0.619-0.212,1.227-0.483,1.773c-1.428,2.878,2.884,5.412,4.317,2.523c1.064-2.145,1.753-4.646,0.393-6.836
			c-1.207-1.943-3.675-2.597-5.826-2.31c-5.903,0.787-9.675,6.01-9.818,11.755c-0.074,2.956,4.002,3.223,4.911,0.665
			c1.908-5.375,6.875-8.084,11.481-10.891C302.263,109.232,299.752,104.907,296.991,106.589L296.991,106.589z"/>
	</g>
</g>
<g>
	<g>
		<path fill="#6BA2AF" d="M288.218,115.239c-2.793,0.658-4.773,2.131-7.116,3.735c-2.872,1.966-6.31,3.354-9.46,4.803
			c-5.765,2.65-11.786,4.793-17.466,7.615c-10.047,4.991-6.025,17.578-10.638,25.632c1.523,0.199,3.046,0.398,4.569,0.597
			c-1.388-6.485-0.46-13.474,2.601-19.36c-1.553-0.42-3.106-0.841-4.659-1.262c0.776,10.896-9.813,19.119-6.837,30.465
			c0.707,2.693,5.071,2.189,4.911-0.665c-0.171-3.042-0.854-5.875-1.719-8.792c-0.915-3.083-5.741-1.77-4.821,1.329
			c0.739,2.49,1.394,4.849,1.541,7.463c1.637-0.222,3.274-0.443,4.911-0.665c-2.67-10.181,7.75-18.814,7.016-29.136
			c-0.165-2.315-3.431-3.623-4.659-1.262c-3.703,7.12-4.783,15.371-3.104,23.212c0.461,2.152,3.535,2.403,4.569,0.597
			c4.109-7.176,0.756-19.267,8.844-23.838c4.945-2.794,10.675-4.624,15.876-6.904c2.678-1.173,5.308-2.441,7.907-3.778
			c3.041-1.564,5.711-4.178,9.066-4.968C292.685,119.321,291.354,114.5,288.218,115.239L288.218,115.239z"/>
	</g>
</g>
<g>
	<g>
		<path fill="#6BA2AF" d="M236.678,163.705c0.038,1.393,0.6,2.487,1.719,3.31c0.783,0.576,1.875,0.727,2.818,0.739
			c1.363,0.017,2.5-1.15,2.5-2.5c0-1.375-1.138-2.483-2.5-2.5c-0.092,0-0.183-0.002-0.274-0.007
			c-0.505-0.02,0.636,0.113,0.163,0.029c-0.076-0.015-0.15-0.033-0.225-0.055c-0.432-0.116,0.583,0.29,0.206,0.088
			c-0.208-0.134-0.119-0.063,0.268,0.215c-0.311-0.267,0.363,0.555,0.153,0.196c0.17,0.446,0.216,0.546,0.139,0.302
			c-0.13-0.438,0.047,0.679,0.033,0.183c-0.038-1.362-1.109-2.5-2.5-2.5C237.843,161.205,236.64,162.342,236.678,163.705
			L236.678,163.705z"/>
	</g>
</g>
<g>
	<g>
		<path fill="#6BA2AF" d="M251.345,150.545c-0.289,2.407-0.531,6.855-2.836,8.291c1.01,0.13,2.02,0.261,3.029,0.391
			c0.165,0.194-0.236-0.999-0.172-0.832c-1.144-2.978-5.98-1.686-4.821,1.329c0.445,1.159,0.618,2.044,1.458,3.038
			c0.703,0.832,2.138,0.946,3.029,0.391c4.154-2.588,4.782-8.179,5.313-12.608C256.728,147.348,251.723,147.385,251.345,150.545
			L251.345,150.545z"/>
	</g>
</g>
<g>
	<g>
		<path fill="#6BA2AF" d="M323.066,102.779c2.552,1.581,5.219,2.182,8.183,2.446c3.448,0.306,7.358-0.455,10.053,2.195
			c2.3,2.262,5.837-1.272,3.535-3.535c-5.463-5.371-13.207-1.681-19.248-5.423C322.84,96.759,320.332,101.085,323.066,102.779
			L323.066,102.779z"/>
	</g>
</g>
<g>
	<g>
		<path fill="#6BA2AF" d="M763.932,166.979c3.225,0,3.225-5,0-5S760.707,166.979,763.932,166.979L763.932,166.979z"/>
	</g>
</g>
<g>
	<g>
		<path fill="#6BA2AF" d="M763.117,168.526c3.225,0,3.225-5,0-5S759.893,168.526,763.117,168.526L763.117,168.526z"/>
	</g>
</g>
<g>
	<g>
		<path fill="#6BA2AF" d="M763.117,169.688c3.225,0,3.225-5,0-5S759.893,169.688,763.117,169.688L763.117,169.688z"/>
	</g>
</g>
<g>
	<g>
		<path fill="#6BA2AF" d="M766.343,160.718c-3.078-9.321-8.889-17.244-12.884-26.141c-1.318-2.937-5.626-0.392-4.316,2.523
			c3.813,8.492,9.443,16.056,12.378,24.946C762.527,165.094,767.356,163.788,766.343,160.718L766.343,160.718z"/>
	</g>
</g>
<g>
	<g>
		<path fill="#6BA2AF" d="M675.4,98.972c-1.89,2.67-5.199,3.182-8.188,3.829c-2.842,0.616-5.586,1.386-8.027,3.014
			c-2.668,1.779-0.168,6.112,2.523,4.317c5.904-3.938,13.489-2.249,18.008-8.637C681.584,98.857,677.246,96.363,675.4,98.972
			L675.4,98.972z"/>
	</g>
</g>
<g>
	<g>
		<path fill="#6BA2AF" d="M659.225,110.861c3.225,0,3.225-5,0-5S656,110.861,659.225,110.861L659.225,110.861z"/>
	</g>
</g>
<g>
	<g>
		<path fill="#6BA2AF" d="M660.854,109.701c3.225,0,3.225-5,0-5S657.63,109.701,660.854,109.701L660.854,109.701z"/>
	</g>
</g>
<g>
	<g>
		<path fill="#6BA2AF" d="M658.003,112.022c3.225,0,3.225-5,0-5S654.778,112.022,658.003,112.022L658.003,112.022z"/>
	</g>
</g>
</svg>
